<svg width="122" height="122" viewBox="0 0 122 122" fill="none" xmlns="http://www.w3.org/2000/svg">
<circle cx="60.9819" cy="60.975" r="60.9819" fill="#F5BB3D"/>
<mask id="mask0_1_87" style="mask-type:alpha" maskUnits="userSpaceOnUse" x="0" y="-1" width="122" height="123">
<circle cx="60.9819" cy="60.975" r="60.9819" fill="#F5BB3D"/>
</mask>
<g mask="url(#mask0_1_87)">
<path d="M-2.63147 56.9772C-0.365266 56.848 1.90094 56.7698 4.16323 56.578C12.136 55.9087 20.1284 55.3803 28.0699 54.4331C32.3049 53.9282 36.5202 52.9067 40.6221 51.7011C51.0529 48.6404 57.0022 41.3291 59.6598 31.0039C61.3937 24.264 62.2939 17.4067 62.8262 10.4946C63.335 3.87603 63.6755 -2.75428 64.0943 -9.38067C64.11 -9.61551 64.1491 -9.84644 64.384 -10.1087C64.4388 -9.81512 64.521 -9.52549 64.5405 -9.23194C65.1511 -0.711169 65.5464 7.82917 66.4349 16.3186C66.9789 21.536 68.0201 26.7338 69.2765 31.8337C72.028 42.9886 79.3433 49.6385 90.3729 52.4605C97.1128 54.1865 103.97 55.0946 110.878 55.6425C117.83 56.1944 124.796 56.5897 131.803 57.2903C131.188 57.3295 130.57 57.353 129.955 57.4038C120.182 58.1866 110.389 58.8168 100.639 59.8344C96.5492 60.2611 92.4865 61.3061 88.5059 62.4177C78.3217 65.271 72.0984 72.0813 69.2686 82.1912C67.2999 89.2285 66.3723 96.4303 65.8047 103.683C65.2881 110.301 64.9554 116.932 64.5405 123.558C64.5249 123.824 64.4662 124.09 64.1609 124.353C64.02 121.758 63.8908 119.159 63.7342 116.564C63.1315 106.575 62.5835 96.579 60.4817 86.7627C59.9416 84.2421 59.2214 81.7489 58.3721 79.3144C55.3152 70.5392 49.0842 65.1144 40.309 62.4098C33.98 60.4607 27.475 59.4783 20.9112 58.9146C13.0871 58.2453 5.25132 57.7444 -2.58059 57.1729C-2.59233 57.1064 -2.60799 57.0398 -2.61973 56.9733L-2.63147 56.9772Z" fill="white"/>
</g>
</svg>
