<svg width="220" height="44" viewBox="0 0 220 44" fill="none" xmlns="http://www.w3.org/2000/svg">
<path d="M64.4384 29.8432H73.2269V32.0993H61.6838V12.686H64.4384V29.8432ZM84.1407 19.0347H86.7642V32.0993H84.1407V27.5608H84.0883C84.0883 30.5777 82.5142 32.3616 79.8383 32.3616C76.9788 32.3616 75.2998 30.3941 75.2998 27.0886V19.0347H77.9232V27.0099C77.9232 29.0561 78.9988 30.2367 80.8352 30.2367C82.9077 30.2367 84.1407 28.7151 84.1407 26.1441V19.0347ZM100.094 19.0347H102.718V32.0993H100.094V27.7444H100.042C100.042 30.6302 98.2843 32.3616 95.2936 32.3616C91.8831 32.3616 89.8631 29.8432 89.8631 25.567C89.8631 21.2908 91.8831 18.7723 95.2936 18.7723C98.2843 18.7723 100.042 20.5038 100.042 23.3895H100.094V19.0347ZM96.4216 30.2367C98.8614 30.2367 100.278 28.4003 100.278 25.567C100.278 22.7337 98.8614 20.8973 96.4216 20.8973C93.9819 20.8973 92.5652 22.6287 92.5652 25.567C92.5652 28.5052 93.9819 30.2367 96.4216 30.2367ZM113.641 18.7723C116.579 18.7723 118.311 20.7399 118.311 24.0454V32.0993H115.687V24.1241C115.687 22.0778 114.559 20.8973 112.644 20.8973C110.493 20.8973 109.208 22.4189 109.208 24.9898V32.0993H106.584V19.0347H109.208V23.5732H109.26C109.26 20.5562 110.887 18.7723 113.641 18.7723ZM131.504 19.0347H134.127V32.0993H131.504V27.7444H131.451C131.451 30.6302 129.694 32.3616 126.703 32.3616C123.292 32.3616 121.272 29.8432 121.272 25.567C121.272 21.2908 123.292 18.7723 126.703 18.7723C129.694 18.7723 131.451 20.5038 131.451 23.3895H131.504V19.0347ZM127.831 30.2367C130.271 30.2367 131.687 28.4003 131.687 25.567C131.687 22.7337 130.271 20.8973 127.831 20.8973C125.391 20.8973 123.975 22.6287 123.975 25.567C123.975 28.5052 125.391 30.2367 127.831 30.2367ZM159.431 12.686H162.238L158.041 32.0993H153.004L149.41 12.9483H149.357L145.816 32.0993H140.752L136.581 12.686H139.546L143.454 31.837H143.507L147.127 12.686H151.771L155.444 31.837H155.496L159.431 12.686ZM170.025 32.3616C165.933 32.3616 163.493 29.8432 163.493 25.567C163.493 21.2908 165.933 18.7723 170.025 18.7723C174.144 18.7723 176.558 21.2908 176.558 25.567C176.558 29.8432 174.144 32.3616 170.025 32.3616ZM170.025 30.2367C172.465 30.2367 173.882 28.5052 173.882 25.567C173.882 22.6287 172.465 20.8973 170.025 20.8973C167.586 20.8973 166.169 22.6287 166.169 25.567C166.169 28.5052 167.586 30.2367 170.025 30.2367ZM186.708 18.7723C189.646 18.7723 191.377 20.7399 191.377 24.0454V32.0993H188.754V24.1241C188.754 22.0778 187.626 20.8973 185.711 20.8973C183.559 20.8973 182.274 22.4189 182.274 24.9898V32.0993H179.651V19.0347H182.274V23.5732H182.326C182.326 20.5562 183.953 18.7723 186.708 18.7723ZM204.57 19.0347H207.194V32.3616C207.194 36.1394 204.859 38.3955 200.871 38.3955C197.356 38.3955 195.047 36.6116 194.706 33.6209L197.198 33.2798C197.382 35.1687 198.746 36.2705 200.871 36.2705C203.206 36.2705 204.57 34.8801 204.57 32.5191V27.6395H204.518C204.518 30.5253 202.76 32.2567 199.769 32.2567C196.359 32.2567 194.339 29.7645 194.339 25.5145C194.339 21.2908 196.359 18.7723 199.769 18.7723C202.76 18.7723 204.518 20.5038 204.518 23.3895H204.57V19.0347ZM200.897 30.1317C203.337 30.1317 204.754 28.3216 204.754 25.5145C204.754 22.7074 203.337 20.8973 200.897 20.8973C198.458 20.8973 197.041 22.6287 197.041 25.5145C197.041 28.4265 198.458 30.1317 200.897 30.1317ZM210.771 29.1873H213.841V32.0993H210.771V29.1873Z" fill="#15140F"/>
<rect x="0.880981" y="0.579803" width="42.5332" height="42.5332" rx="3.79053" fill="#F5BB3D"/>
<mask id="mask0_1_73" style="mask-type:alpha" maskUnits="userSpaceOnUse" x="0" y="0" width="44" height="44">
<rect x="0.880981" y="0.579803" width="42.5332" height="42.5332" rx="3.79053" fill="#F5BB3D"/>
</mask>
<g mask="url(#mask0_1_73)">
<path d="M-12.598 -9.1477C-12.2309 -8.84114 -11.8558 -8.54668 -11.5008 -8.22398C-2.49754 -0.0234413 6.50168 8.18113 15.5009 16.3857C20.2607 20.7219 25.444 20.6614 30.1029 16.2163C50.09 -2.8551 70.077 -21.9265 90.0681 -40.9979C90.4554 -41.369 90.8547 -41.732 91.5243 -41.8611C91.1209 -41.4174 90.7256 -40.9616 90.3101 -40.526C71.3033 -20.6155 52.2964 -0.705132 33.2896 19.2053C28.6911 24.0215 28.6306 29.0677 33.1363 34.0171C41.2319 42.9114 49.3397 51.7936 57.4394 60.6839C57.8267 61.1075 58.1977 61.5391 58.343 62.2127C57.8751 61.8093 57.3991 61.41 56.9433 60.9945C48.0893 52.9271 39.2474 44.8516 30.3853 36.7963C25.3795 32.2463 20.3817 32.339 15.4606 37.0343C-4.49019 56.0694 -24.4409 75.1085 -44.3957 94.1436C-44.8556 94.5833 -45.3235 95.0189 -45.7873 95.4545C-45.8801 95.3698 -45.9729 95.2892 -46.0657 95.2045C-45.5897 94.6922 -45.1178 94.1718 -44.6337 93.6636C-25.6269 73.7532 -6.62 53.8428 12.3828 33.9283C17.066 29.0193 17.1386 24.0135 12.5765 18.9996C4.58567 10.2141 -3.42125 1.44483 -11.4201 -7.33253C-11.892 -7.84884 -12.3559 -8.37323 -12.8238 -8.89357C-12.7512 -8.97828 -12.6746 -9.06299 -12.602 -9.1477H-12.598Z" fill="white"/>
</g>
</svg>
